<?xml version="1.0" encoding="UTF-8"?>
<!DOCTYPE svg PUBLIC "-//W3C//DTD SVG 1.1//EN" "http://www.w3.org/Graphics/SVG/1.1/DTD/svg11.dtd">
<svg xmlns="http://www.w3.org/2000/svg" version="1.1" width="300px" height="108px" style="shape-rendering:geometricPrecision; text-rendering:geometricPrecision; image-rendering:optimizeQuality; fill-rule:evenodd; clip-rule:evenodd" xmlns:xlink="http://www.w3.org/1999/xlink">
<g><path style="opacity:0.941" fill="#69da40" d="M 45.5,1.5 C 69.2118,1.39417 84.0451,12.7275 90,35.5C 90.4997,43.1594 90.6664,50.8261 90.5,58.5C 85.1667,58.5 79.8333,58.5 74.5,58.5C 74.6663,51.4921 74.4996,44.4921 74,37.5C 67.2719,19.8849 55.1053,14.3849 37.5,21C 24.8758,30.6171 22.0425,42.4505 29,56.5C 37.5849,67.9501 48.4183,70.7834 61.5,65C 67.5,64.3333 73.5,64.3333 79.5,65C 83.0285,69.6958 86.3618,74.5291 89.5,79.5C 83.1851,81.0287 77.0184,80.6954 71,78.5C 49.4526,88.5613 31.1192,84.5613 16,66.5C 6.76756,49.3668 7.43422,32.7002 18,16.5C 25.4636,8.1882 34.6303,3.1882 45.5,1.5 Z"/></g>
<g><path style="opacity:0.938" fill="#69da40" d="M 140.5,1.5 C 169.354,0.245012 185.354,13.9117 188.5,42.5C 187.364,64.6238 176.031,78.1238 154.5,83C 147.5,83.3333 140.5,83.6667 133.5,84C 130.039,90.4218 126.706,96.9218 123.5,103.5C 117.5,104.833 111.5,104.833 105.5,103.5C 111.372,91.5888 117.372,79.7554 123.5,68C 133.5,67.6667 143.5,67.3333 153.5,67C 167.416,62.0744 173.582,52.2411 172,37.5C 167.497,23.0052 157.664,16.5052 142.5,18C 131.334,21.4968 124.834,28.9968 123,40.5C 122.5,47.8258 122.334,55.1591 122.5,62.5C 117.167,62.5 111.833,62.5 106.5,62.5C 106.256,52.7924 106.756,43.1257 108,33.5C 112.781,16.5514 123.614,5.88471 140.5,1.5 Z"/></g>
<g><path style="opacity:0.936" fill="#69da40" d="M 238.5,1.5 C 269.983,0.817326 285.816,16.1507 286,47.5C 283.07,67.0966 271.904,78.93 252.5,83C 245.5,83.3333 238.5,83.6667 231.5,84C 228.039,90.4218 224.706,96.9218 221.5,103.5C 215.537,104.496 209.537,104.829 203.5,104.5C 209.068,92.1971 215.068,80.0304 221.5,68C 231.5,67.6667 241.5,67.3333 251.5,67C 264.832,62.1733 270.998,52.6733 270,38.5C 265.924,23.4294 256.091,16.5961 240.5,18C 229.789,21.3762 223.289,28.5428 221,39.5C 220.5,47.1594 220.334,54.8261 220.5,62.5C 215.167,62.5 209.833,62.5 204.5,62.5C 204.169,52.4499 204.669,42.4499 206,32.5C 211.231,16.0984 222.064,5.76506 238.5,1.5 Z"/></g>
</svg>
